<svg width="1169" height="269" viewBox="0 0 1169 269" fill="none" xmlns="http://www.w3.org/2000/svg">
<path fill-rule="evenodd" clip-rule="evenodd" d="M543.052 210.18H375.602V0H317.942V268.212H543.052V210.18ZM0 0.251986V268.212H70.686V70.938H200.97V268.212H271.656V67.242C271.656 55.23 268.576 44.142 262.416 33.978C256.564 23.814 248.556 15.652 238.392 9.492C228.228 3.33199 216.986 0.251986 204.666 0.251986H0ZM589.612 268.212V55.428C589.612 45.26 592.092 36.084 597.052 27.9C602.012 19.468 608.708 12.772 617.14 7.81199C625.572 2.85199 634.748 0.371995 644.668 0.371995H802.024C812.192 0.371995 821.368 2.85199 829.552 7.81199C837.984 12.772 844.68 19.468 849.64 27.9C854.848 36.084 857.452 45.26 857.452 55.428V268.212H799.048V181.908H647.272V268.212H589.612ZM647.272 123.876H799.048V58.404H647.272V123.876ZM900.953 0.371995V268.212H1113.36C1123.53 268.212 1132.71 265.732 1140.89 260.772C1149.32 255.812 1156.02 249.116 1160.98 240.684C1166.19 232.252 1168.79 223.076 1168.79 213.156V157.728C1168.79 151.528 1167.55 145.328 1165.07 139.128C1162.59 132.928 1159.49 127.472 1155.77 122.76C1156.76 120.28 1157.38 117.676 1157.63 114.948C1158.13 111.972 1158.38 108.872 1158.38 105.648V55.428C1158.38 45.26 1155.77 36.084 1150.56 27.9C1145.6 19.468 1138.91 12.772 1130.48 7.81199C1122.29 2.85199 1113.24 0.371995 1103.32 0.371995H900.953ZM1110.39 210.18H958.613V161.076H1110.39V210.18ZM1099.97 103.044H958.613V58.404H1099.97V103.044Z" fill="white"/>
</svg>
