<?xml version="1.0" encoding="utf-8"?>
<!-- Generator: Adobe Illustrator 16.0.4, SVG Export Plug-In . SVG Version: 6.00 Build 0)  -->
<!DOCTYPE svg PUBLIC "-//W3C//DTD SVG 1.1//EN" "http://www.w3.org/Graphics/SVG/1.1/DTD/svg11.dtd">
<svg version="1.1" id="Layer_1" xmlns="http://www.w3.org/2000/svg" xmlns:xlink="http://www.w3.org/1999/xlink" x="0px" y="0px"
	 width="260px" height="110px" viewBox="0 0 260 110" enable-background="new 0 0 260 110" xml:space="preserve">
<g>
	<g enable-background="new    ">
		<path fill="#FFFFFF" d="M90.137,67.35c0.086,1.656,0.432,3.117,1.04,4.381c0.606,1.266,1.396,2.346,2.371,3.244
			c0.975,0.896,2.112,1.576,3.411,2.035c1.299,0.46,2.707,0.689,4.223,0.689c1.082,0,2.242-0.104,3.476-0.311
			s2.381-0.586,3.443-1.139c1.061-0.552,1.938-1.321,2.631-2.311c0.692-0.989,1.04-2.243,1.04-3.762
			c0-1.977-0.563-3.473-1.689-4.484c-1.126-1.012-2.545-1.794-4.255-2.346c-1.711-0.553-3.552-1.001-5.522-1.346
			c-1.972-0.346-3.812-0.863-5.523-1.553c-1.711-0.689-3.129-1.667-4.255-2.933c-1.127-1.265-1.689-3.116-1.689-5.555
			c0-1.748,0.368-3.208,1.104-4.381c0.736-1.173,1.678-2.104,2.827-2.794c1.147-0.69,2.436-1.184,3.866-1.484
			c1.429-0.298,2.858-0.448,4.288-0.448c1.732,0,3.356,0.207,4.873,0.621c1.516,0.414,2.826,1.081,3.931,2.001
			c1.104,0.92,1.97,2.094,2.599,3.519c0.627,1.426,0.942,3.151,0.942,5.175h-2.469c0-1.609-0.25-2.99-0.747-4.14
			c-0.499-1.149-1.192-2.081-2.079-2.794c-0.888-0.712-1.939-1.242-3.151-1.587c-1.213-0.345-2.512-0.518-3.898-0.518
			c-1.127,0-2.264,0.115-3.411,0.345c-1.148,0.23-2.177,0.621-3.086,1.173c-0.91,0.552-1.657,1.266-2.242,2.139
			c-0.585,0.875-0.877,1.932-0.877,3.174c0,1.426,0.325,2.577,0.975,3.45c0.649,0.875,1.504,1.576,2.566,2.104
			c1.061,0.529,2.252,0.955,3.574,1.276c1.321,0.322,2.652,0.645,3.996,0.967c1.646,0.322,3.194,0.701,4.646,1.138
			c1.451,0.438,2.707,1.035,3.769,1.794c1.061,0.76,1.894,1.737,2.501,2.933c0.606,1.196,0.91,2.715,0.91,4.554
			c0,1.933-0.412,3.52-1.234,4.762c-0.823,1.242-1.863,2.242-3.119,3.002c-1.257,0.758-2.654,1.287-4.19,1.586
			c-1.538,0.299-3.043,0.449-4.516,0.449c-1.907,0-3.671-0.266-5.295-0.793c-1.624-0.529-3.043-1.334-4.255-2.416
			c-1.213-1.08-2.167-2.402-2.859-3.967c-0.693-1.564-1.062-3.381-1.104-5.451H90.137z"/>
		<path fill="#FFFFFF" d="M145.361,54.653c-0.13-1.563-0.51-2.943-1.137-4.14c-0.629-1.196-1.441-2.185-2.437-2.967
			c-0.997-0.782-2.155-1.38-3.476-1.794c-1.322-0.414-2.74-0.621-4.256-0.621c-2.079,0-3.921,0.449-5.523,1.346
			c-1.603,0.897-2.946,2.094-4.028,3.588c-1.083,1.496-1.906,3.198-2.469,5.106c-0.563,1.91-0.845,3.876-0.845,5.9
			c0,2.393,0.26,4.6,0.78,6.624c0.52,2.024,1.321,3.784,2.404,5.278c1.083,1.496,2.425,2.656,4.028,3.484
			c1.602,0.828,3.487,1.242,5.653,1.242c1.559,0,2.998-0.275,4.32-0.828c1.32-0.552,2.49-1.311,3.508-2.277
			c1.018-0.965,1.853-2.127,2.502-3.484c0.65-1.355,1.082-2.84,1.299-4.45h2.47c-0.26,2.116-0.802,4.002-1.624,5.658
			c-0.824,1.655-1.863,3.048-3.119,4.175c-1.257,1.127-2.686,1.99-4.288,2.588c-1.603,0.597-3.292,0.896-5.067,0.896
			c-2.729,0-5.058-0.518-6.985-1.553c-1.928-1.035-3.508-2.426-4.743-4.174s-2.144-3.762-2.729-6.038
			c-0.584-2.277-0.877-4.657-0.877-7.142s0.335-4.83,1.007-7.038c0.671-2.208,1.657-4.14,2.957-5.796
			c1.299-1.656,2.901-2.967,4.808-3.933c1.906-0.966,4.094-1.449,6.562-1.449c1.818,0,3.519,0.241,5.1,0.725
			c1.581,0.483,2.989,1.208,4.224,2.173s2.241,2.197,3.021,3.691c0.78,1.496,1.256,3.232,1.43,5.21H145.361z"/>
		<path fill="#FFFFFF" d="M152.378,61.415c0-2.529,0.335-4.909,1.007-7.142c0.672-2.23,1.656-4.197,2.957-5.899
			c1.299-1.701,2.9-3.047,4.807-4.037c1.906-0.989,4.094-1.483,6.562-1.483s4.656,0.495,6.562,1.483
			c1.905,0.99,3.508,2.335,4.808,4.037c1.3,1.702,2.284,3.669,2.956,5.899c0.672,2.232,1.008,4.612,1.008,7.142
			c0,2.53-0.336,4.923-1.008,7.177s-1.656,4.221-2.956,5.898c-1.3,1.68-2.902,3.014-4.808,4.003
			c-1.906,0.988-4.094,1.483-6.562,1.483s-4.656-0.495-6.562-1.483c-1.906-0.989-3.508-2.323-4.807-4.003
			c-1.301-1.678-2.285-3.645-2.957-5.898S152.378,63.945,152.378,61.415z M154.847,61.415c0,2.116,0.281,4.151,0.845,6.106
			c0.562,1.956,1.386,3.691,2.469,5.21c1.082,1.519,2.426,2.726,4.028,3.622c1.603,0.897,3.443,1.346,5.522,1.346
			s3.92-0.448,5.523-1.346c1.602-0.896,2.944-2.104,4.027-3.622c1.082-1.519,1.906-3.254,2.469-5.21
			c0.562-1.955,0.846-3.99,0.846-6.106c0-2.115-0.283-4.151-0.846-6.106c-0.562-1.955-1.387-3.691-2.469-5.209
			c-1.083-1.518-2.426-2.726-4.027-3.623c-1.604-0.897-3.444-1.346-5.523-1.346s-3.92,0.449-5.522,1.346s-2.946,2.104-4.028,3.623
			c-1.083,1.518-1.906,3.255-2.469,5.209C155.128,57.264,154.847,59.3,154.847,61.415z"/>
		<path fill="#FFFFFF" d="M191.814,51.824h0.195c0.26-0.874,0.691-1.839,1.299-2.898c0.606-1.058,1.407-2.035,2.404-2.932
			c0.996-0.897,2.197-1.645,3.605-2.243c1.407-0.597,3.021-0.897,4.841-0.897c2.556,0,4.775,0.507,6.659,1.518
			c1.885,1.012,3.443,2.37,4.678,4.071c1.234,1.703,2.154,3.681,2.762,5.934c0.605,2.254,0.91,4.623,0.91,7.107
			c0,2.715-0.305,5.199-0.912,7.452c-0.607,2.255-1.531,4.198-2.769,5.831s-2.801,2.909-4.688,3.828
			c-1.889,0.92-4.113,1.381-6.676,1.381c-2.779,0-5.254-0.645-7.424-1.932c-2.171-1.287-3.756-3.381-4.755-6.279h-0.128
			l-0.002,20.079h-2.404V43.682h2.404V51.824z M204.127,77.699c2.17,0,4.049-0.437,5.634-1.311c1.585-0.873,2.888-2.047,3.909-3.52
			c1.02-1.472,1.779-3.185,2.279-5.141c0.5-1.955,0.75-4.036,0.75-6.244c0-2.023-0.24-4.014-0.717-5.969
			c-0.479-1.955-1.217-3.702-2.216-5.244c-0.999-1.541-2.29-2.783-3.876-3.726c-1.586-0.942-3.506-1.415-5.764-1.415
			c-2.215,0-4.104,0.46-5.668,1.38c-1.563,0.921-2.834,2.139-3.811,3.657c-0.979,1.518-1.684,3.255-2.118,5.209
			c-0.435,1.957-0.651,3.992-0.651,6.107c0,2.116,0.195,4.152,0.586,6.106c0.391,1.956,1.053,3.681,1.987,5.175
			c0.934,1.496,2.192,2.691,3.778,3.588C199.816,77.251,201.781,77.699,204.127,77.699z"/>
		<path fill="#FFFFFF" d="M225.859,61.76v0.414c0,2.07,0.261,4.049,0.782,5.935c0.521,1.887,1.292,3.542,2.312,4.968
			c1.021,1.427,2.302,2.553,3.844,3.381c1.541,0.828,3.333,1.242,5.374,1.242c3.344,0,5.994-0.932,7.948-2.795
			c1.954-1.862,3.3-4.45,4.039-7.762h2.47c-0.738,4.14-2.33,7.314-4.775,9.521c-2.448,2.209-5.686,3.312-9.714,3.312
			c-2.469,0-4.624-0.473-6.465-1.414c-1.841-0.943-3.378-2.231-4.612-3.865c-1.234-1.632-2.156-3.564-2.762-5.795
			c-0.607-2.231-0.91-4.635-0.91-7.211c0-2.484,0.314-4.865,0.942-7.142c0.628-2.277,1.569-4.278,2.827-6.003
			c1.255-1.725,2.826-3.105,4.709-4.14c1.885-1.035,4.104-1.552,6.66-1.552c2.339,0,4.407,0.46,6.205,1.38
			c1.797,0.921,3.303,2.173,4.516,3.761c1.212,1.587,2.133,3.427,2.761,5.52c0.628,2.094,0.942,4.337,0.942,6.728
			c0,0.23-0.012,0.494-0.033,0.793c-0.021,0.301-0.031,0.541-0.031,0.725H225.859z M250.419,59.483
			c-0.087-1.933-0.391-3.761-0.911-5.486c-0.521-1.725-1.293-3.243-2.312-4.554c-1.021-1.311-2.26-2.356-3.714-3.139
			c-1.456-0.782-3.116-1.173-4.983-1.173c-1.998,0-3.758,0.403-5.277,1.208c-1.521,0.806-2.802,1.863-3.844,3.174
			s-1.845,2.841-2.409,4.588c-0.564,1.749-0.913,3.543-1.043,5.382H250.419z"/>
	</g>
	<line fill="none" stroke="#FFFFFF" stroke-width="0.25" stroke-miterlimit="10" x1="6.142" y1="72.139" x2="253.857" y2="72.139"/>
	
		<line fill="none" stroke="#FFFFFF" stroke-width="5" stroke-miterlimit="10" stroke-dasharray="0.25,7" x1="20.862" y1="72.139" x2="253.857" y2="72.139"/>
	<g id="text2985-1-1-9-6-2-0-9-6-4-5-9-2_1_" transform="translate(-5.498092,13.812413)">
		<path id="path3682-3-7_1_" fill="#FFFFFF" d="M51.901,33.627C71.61,15.893,85.444,7.023,93.402,7.023
			c5.088,0,7.632,2.551,7.632,7.651c0,4.492-5.771,12.615-17.309,24.377c-11.54,11.766-17.311,18.855-17.311,21.297
			c0,2.434,1.289,3.748,3.871,3.941c2.579,0.186,3.871,0.854,3.871,1.995c0,1.521-2.582,2.282-7.742,2.282
			c-5.948,0-8.923-2.816-8.923-8.448c0-4.721,2.867-10.696,8.6-17.933c2.938-3.729,8.243-9.477,15.913-17.237
			c5.732-5.784,8.602-9.286,8.602-10.505c0-0.988-0.646-1.485-1.936-1.485c-4.087,0-12.976,5.786-26.664,17.355
			c-11.396,9.59-19.854,17.476-25.375,23.64c-7.023,7.838-11.287,11.764-12.793,11.764c-1.146,0-2.185-0.594-3.117-1.773
			c-0.932-1.179-1.398-2.417-1.398-3.71c0-1.752,4.945-8.831,14.838-21.243L51.9,16.729c0,0,0.424-0.566-7.337,6.523
			c-15.431,14.176-21.832,18.813-27.35,18.813c-1.298,0-1.977-0.328-1.977-1.238c0-1.371,1.277-1.701,3.286-2.16
			c4.487-1.437,5.038-1.162,12.587-7.57C50.374,14.488,50.088,14.001,55.592,7.92c1.075-1.141,1.971-2.836,4.263-4.436
			c1.148-0.456,2.367-0.686,3.656-0.686c1.218,0,2.456,0.441,3.708,1.313c1.257,0.876,1.884,1.925,1.884,3.14
			C69.104,8.623,63.369,17.415,51.901,33.627z"/>
	</g>
	<g>
		<line fill="none" x1="20.862" y1="72.139" x2="20.862" y2="5.563"/>
		
			<line fill="none" stroke="#FFFFFF" stroke-width="5" stroke-miterlimit="10" stroke-dasharray="0.25,7" x1="20.862" y1="72.139" x2="20.862" y2="5.563"/>
	</g>
	<line fill="none" stroke="#FFFFFF" stroke-width="0.25" stroke-miterlimit="10" x1="20.862" y1="5.563" x2="20.862" y2="88.398"/>
</g>
</svg>
